<svg xmlns="http://www.w3.org/2000/svg" xmlns:xlink="http://www.w3.org/1999/xlink" aria-hidden="true" role="img" class="w-[26px] h-[26px] iconify iconify--gtp" width="1em" height="1em" viewBox="0 0 24 24"><path d="M8.008 7.45c-.046-.631.126-1.211.495-1.774.247-.373.598-.777.984-1.222.998-1.148 2.233-2.57 2.536-4.454.657 1.444.338 2.848-.39 4.14-.327.58-.69.997-1.036 1.395-.407.468-.791.91-1.067 1.558a3.7 3.7 0 0 0-.279 1.022z" fill="url(#iconifyReact382)"></path><path d="M10.142 8.593a5.2 5.2 0 0 1 .763-1.583c.289-.422.56-.735.802-1.015.817-.946 1.324-1.532 1.175-4.7q.144.305.281.588l.001.001c.797 1.654 1.356 2.814.416 4.407-.464.787-.803 1.178-1.102 1.524-.337.39-.624.722-.986 1.497z" fill="url(#iconifyReact383)"></path><path d="M13.64 8.093c-.366.434-.964 1.032-.992 1.072l3.384-1.892c-.07-.63-.535-1.373-1.107-2.43.116 1.393-.427 2.233-1.285 3.25" fill="url(#iconifyReact384)"></path><path d="M16.007 7.902c-.09.404-.59 1.244-.956 1.68-1.157 1.377-1.76 1.964-2.75 4.036q-.086-.336-.17-.637c-.277-.997-.447-1.827-.116-2.543z" fill="url(#iconifyReact385)"></path><path d="M11.537 12.57c-.283-.828-.486-1.522-.338-2.399l-1.184-.77c-.065 1.29.486 2.796 2.008 4.735-.081-.48-.324-1.091-.486-1.565" fill="url(#iconifyReact386)"></path><path d="M9.227 8.887c.02.42.28 1.529.511 2.116-.662-.845-1.386-2.142-1.593-2.821z" fill="url(#iconifyReact387)"></path><path d="M23.162 15.193c0-1.92-3.57-3.534-8.394-3.986-.46.516-.92 1.158-1.36 2.103l-.662 1.258a.763.763 0 0 1-1.29.1l-.424-.571c-.885-1.13-1.533-2.025-2.043-2.863-4.683.487-8.12 2.076-8.12 3.96 0 2.27 4.995 4.112 11.149 4.112q.446 0 .884-.013l.903-2.556.007-.018c.2-.498.679-.824 1.212-.831h.004l7.972.02c.082-.2.162-.505.162-.715" fill="url(#iconifyReact388)"></path><path d="M15.353 19.362h6.246l-.273.693h-6.213L13.729 24v-4.19l.968-2.738a.37.37 0 0 1 .34-.233l7.571.002-.28.683h-6.32l-.195.576h6.3l-.3.685h-6.241z" fill="url(#iconifyReact389)"></path><path d="M1.252 17.008c.72 2.034 2.48 4.423 2.854 4.773C5.399 22.998 9.564 24 12.845 24v-3.429c-5.687 0-10.127-1.842-11.593-3.564" fill="url(#iconifyReact390)"></path><defs><radialGradient id="iconifyReact382" cx="0" cy="0" r="1" gradientUnits="userSpaceOnUse" gradientTransform="rotate(117.912 5.02 4.739)scale(6.92761 5.34671)"><stop stop-color="#1DF7EF"></stop><stop offset="1" stop-color="#10808C"></stop></radialGradient><radialGradient id="iconifyReact383" cx="0" cy="0" r="1" gradientUnits="userSpaceOnUse" gradientTransform="matrix(-2.90937 6.04739 -4.40804 -2.12069 13.333 3.785)"><stop stop-color="#1DF7EF"></stop><stop offset="1" stop-color="#10808C"></stop></radialGradient><radialGradient id="iconifyReact384" cx="0" cy="0" r="1" gradientUnits="userSpaceOnUse" gradientTransform="matrix(-2.50558 3.25967 -2.9386 -2.25879 15.396 6.186)"><stop stop-color="#1DF7EF"></stop><stop offset="1" stop-color="#10808C"></stop></radialGradient><radialGradient id="iconifyReact385" cx="0" cy="0" r="1" gradientUnits="userSpaceOnUse" gradientTransform="rotate(125.634 5.126 8.748)scale(5.30506 4.68691)"><stop stop-color="#1DF7EF"></stop><stop offset="1" stop-color="#10808C"></stop></radialGradient><radialGradient id="iconifyReact386" cx="0" cy="0" r="1" gradientUnits="userSpaceOnUse" gradientTransform="matrix(-1.4902 3.5726 -2.36834 -.98788 11.645 10.871)"><stop stop-color="#1DF7EF"></stop><stop offset="1" stop-color="#10808C"></stop></radialGradient><radialGradient id="iconifyReact387" cx="0" cy="0" r="1" gradientUnits="userSpaceOnUse" gradientTransform="matrix(-1.18003 2.12813 -1.68394 -.93373 9.439 9.058)"><stop stop-color="#1DF7EF"></stop><stop offset="1" stop-color="#10808C"></stop></radialGradient><radialGradient id="iconifyReact388" cx="0" cy="0" r="1" gradientUnits="userSpaceOnUse" gradientTransform="matrix(-16.50708 6.10976 -3.71084 -10.02579 18.973 13.723)"><stop stop-color="#FFDF27"></stop><stop offset="1" stop-color="#FE5468"></stop></radialGradient><radialGradient id="iconifyReact389" cx="0" cy="0" r="1" gradientUnits="userSpaceOnUse" gradientTransform="rotate(140.592 7.056 13.282)scale(8.50898 7.78722)"><stop stop-color="#1DF7EF"></stop><stop offset="1" stop-color="#10808C"></stop></radialGradient><radialGradient id="iconifyReact390" cx="0" cy="0" r="1" gradientUnits="userSpaceOnUse" gradientTransform="matrix(-8.58398 5.27532 -4.3906 -7.14435 10.666 19.18)"><stop stop-color="#1DF7EF"></stop><stop offset="1" stop-color="#10808C"></stop></radialGradient></defs></svg>