<svg xmlns="http://www.w3.org/2000/svg" width="1em" height="1em" fill="none" viewBox="0 0 168 168"><path fill-rule="evenodd" clip-rule="evenodd" d="M83.7944 0H84.6311L84.6446 6.89401e-05C106.941 0.114125 128.283 9.0439 143.989 24.831C159.694 40.6182 168.482 61.9739 168.425 84.2149C168.368 106.456 159.47 127.766 143.684 143.473C127.897 159.18 106.51 168 84.2127 168C61.9155 168 40.5284 159.18 24.7417 143.473C8.95503 127.766 0.0574498 106.456 0.000277228 84.2149C-0.0568953 61.9739 8.73101 40.6182 24.4368 24.831C40.1425 9.0439 61.484 0.114125 83.7809 6.89401e-05L83.7944 0ZM83.8216 10.5001C64.3166 10.6033 45.6482 18.4165 31.9088 32.2271C18.1662 46.0408 10.4768 64.7271 10.5268 84.188C10.5769 103.649 18.3622 122.295 32.1756 136.039C45.989 149.782 64.7027 157.5 84.2127 157.5C103.723 157.5 122.437 149.782 136.25 136.039C150.063 122.295 157.849 103.649 157.899 84.188C157.949 64.7271 150.259 46.0408 136.517 32.2271C122.777 18.4165 104.109 10.6033 84.6039 10.5001H83.8216Z" fill="white"/><path fill-rule="evenodd" clip-rule="evenodd" d="M48.3401 40.3504C54.7656 26.5483 64.133 14.3111 75.7886 4.49241L80.4907 10.0461C69.6452 19.1824 60.9288 30.5692 54.9498 43.412C54.4454 44.4955 53.9615 45.5871 53.4983 46.6862C62.2276 49.4471 71.3317 51.0314 80.5689 51.3618V5.25003H87.8565V51.3618C97.0937 51.0314 106.198 49.4471 114.927 46.6862C114.464 45.5871 113.98 44.4955 113.476 43.412C107.497 30.5692 98.7803 19.1824 87.9347 10.0461L92.6368 4.49241C104.292 14.3111 113.66 26.5483 120.085 40.3504C120.684 41.636 121.256 42.9322 121.8 44.2383C129.345 41.2423 136.545 37.3382 143.232 32.5798L147.464 38.4975C140.259 43.6249 132.498 47.8267 124.363 51.0445C127.553 60.4989 129.375 70.3725 129.762 80.3659H163.162V87.6352H129.79C129.479 97.6529 127.728 107.559 124.601 117.051C132.649 120.256 140.329 124.426 147.464 129.504L143.232 135.421C136.63 130.723 129.527 126.858 122.086 123.877C121.457 125.418 120.79 126.946 120.085 128.458C113.66 142.26 104.292 154.498 92.6368 164.316L87.9347 158.763C98.7803 149.626 107.497 138.24 113.476 125.397C114.089 124.079 114.672 122.75 115.224 121.409C106.405 118.59 97.1986 116.973 87.8565 116.639V162.751H80.5689V116.639C71.2268 116.973 62.0208 118.59 53.201 121.409C53.7535 122.75 54.3365 124.079 54.9498 125.397C60.9288 138.24 69.6452 149.626 80.4907 158.763L75.7886 164.316C64.133 154.498 54.7656 142.26 48.3401 128.458C47.6358 126.946 46.9687 125.418 46.3391 123.877C38.8983 126.858 31.7958 130.723 25.1937 135.421L20.9613 129.504C28.0963 124.426 35.7766 120.256 43.8242 117.051C40.6977 107.559 38.946 97.6529 38.6357 87.6352H5.2633V80.3659H38.6638C39.0509 70.3725 40.8724 60.4989 44.0619 51.0445C35.9279 47.8267 28.1665 43.6249 20.9613 38.4975L25.1937 32.5798C31.8804 37.3382 39.0804 41.2423 46.6254 44.2383C47.1699 42.9322 47.7416 41.636 48.3401 40.3504ZM50.9238 53.4972C48.0136 62.1652 46.3385 71.2101 45.9573 80.3659H80.5689V58.6355C70.4484 58.2977 60.4745 56.5554 50.9238 53.4972ZM87.8565 58.6355V80.3659H122.468C122.087 71.2101 120.412 62.1652 117.502 53.4972C107.951 56.5554 97.977 58.2977 87.8565 58.6355ZM122.498 87.6352H87.8565V109.366C98.0625 109.706 108.119 111.475 117.743 114.582C120.588 105.881 122.193 96.8097 122.498 87.6352ZM80.5689 109.366V87.6352H45.9271C46.2325 96.8097 47.8372 105.881 50.6819 114.582C60.3061 111.475 70.363 109.706 80.5689 109.366Z" fill="white"/></svg>